<?xml version="1.0" encoding="UTF-8"?>
<svg version="1.1" xmlns="http://www.w3.org/2000/svg" width="32" height="32">
<path d="M0 0 C10.56 0 21.12 0 32 0 C32 10.56 32 21.12 32 32 C21.44 32 10.88 32 0 32 C0 21.44 0 10.88 0 0 Z " fill="#FDFEFE" transform="translate(0,0)"/>
<path d="M0 0 C1.98 0 3.96 0 6 0 C5 3 5 3 3 5 C3.969375 5.5775 4.93875 6.155 5.9375 6.75 C9 9 9 9 9.875 11.25 C9.936875 12.11625 9.936875 12.11625 10 13 C5.48281619 14.36884358 2.41225737 13.47075246 -2 12 C-1.67 10.68 -1.34 9.36 -1 8 C-0.34 8 0.32 8 1 8 C1.33 7.67 1.66 7.34 2 7 C1.01 6.34 0.02 5.68 -1 5 C-0.67 3.35 -0.34 1.7 0 0 Z " fill="#93A1C1" transform="translate(12,8)"/>
<path d="M0 0 C1.4540625 0.0309375 1.4540625 0.0309375 2.9375 0.0625 C1.9375 3.0625 1.9375 3.0625 -0.0625 5.0625 C0.9275 5.7225 1.9175 6.3825 2.9375 7.0625 C2.6075 8.3825 2.2775 9.7025 1.9375 11.0625 C-1.55505468 7.92815605 -3.79450974 5.88632465 -4.0625 1.0625 C-3.0625 0.0625 -3.0625 0.0625 0 0 Z " fill="#3F76EE" transform="translate(15.0625,7.9375)"/>
<path d="M0 0 C0.99 0.33 1.98 0.66 3 1 C3.6875 3.0625 3.6875 3.0625 4 5 C1.08517222 5.80967438 -0.46113217 6.21845993 -3.3125 5.0625 C-3.869375 4.711875 -4.42625 4.36125 -5 4 C-3.35 4 -1.7 4 0 4 C0 2.68 0 1.36 0 0 Z " fill="#A5ADBF" transform="translate(18,16)"/>
<path d="M0 0 C1.98 0 3.96 0 6 0 C5.67 0.99 5.34 1.98 5 3 C2.9375 3.6875 2.9375 3.6875 1 4 C0.67 2.68 0.34 1.36 0 0 Z " fill="#91A1C2" transform="translate(12,8)"/>
<path d="M0 0 C0 0.66 0 1.32 0 2 C-2.64 2 -5.28 2 -8 2 C-8 1.34 -8 0.68 -8 0 C-4.71023192 -1.09658936 -3.28696233 -0.79953138 0 0 Z " fill="#E8E8EA" transform="translate(15,21)"/>
<path d="M0 0 C0.99 0.33 1.98 0.66 3 1 C2.54625 1.433125 2.0925 1.86625 1.625 2.3125 C-0.20024334 4.10798342 -0.20024334 4.10798342 -2 7 C-2.99 6.01 -3.98 5.02 -5 4 C-4.34 4 -3.68 4 -3 4 C-2.67 3.34 -2.34 2.68 -2 2 C-1.34 1.34 -0.68 0.68 0 0 Z " fill="#D8DDE7" transform="translate(19,8)"/>
<path d="M0 0 C1.11375 0.3403125 1.11375 0.3403125 2.25 0.6875 C2.25 1.3475 2.25 2.0075 2.25 2.6875 C-0.72 2.6875 -3.69 2.6875 -6.75 2.6875 C-4.29511132 0.41445492 -3.41240272 -0.38777304 0 0 Z " fill="#E3E9F4" transform="translate(22.75,20.3125)"/>
</svg>
